# xmcd CD database file
#
# Track frame offsets:
#	150
#	20385
#	36197
#	60865
#	74597
#	93337
#	112405
#	132272
#	155545
#	176560
#
# Disc length: 2617 seconds
#
# Revision: 4
# Processed by: cddbd v1.4PL0 Copyright (c) Steve Scherf et al.
# Submitted via: CDex 1.50beta9
#
DISCID=860a370a
DTITLE=Earle, Steve - Copperhead Road
DYEAR=1988
DGENRE=Country
TTITLE0=Copperhead Road
TTITLE1=Snake Oil
TTITLE2=Back To The Wall
TTITLE3=The Devil's Right Hand
TTITLE4=Johnny Come Lately
TTITLE5=Even When I'm Blue
TTITLE6=You Belong To Me
TTITLE7=Waiting On You
TTITLE8=Once You Love
TTITLE9=Nothing But A Child
EXTD=YEAR: 1988
EXTT0=
EXTT1=
EXTT2=
EXTT3=
EXTT4=
EXTT5=
EXTT6=
EXTT7=
EXTT8=
EXTT9=
PLAYORDER=
